<svg width="60" height="60" viewBox="0 0 60 60" fill="none" xmlns="http://www.w3.org/2000/svg">
<path d="M27.3488 30L22.0462 24.6975C21.7047 24.3439 21.5157 23.8702 21.52 23.3786C21.5243 22.887 21.7214 22.4167 22.0691 22.0691C22.4167 21.7214 22.887 21.5243 23.3786 21.52C23.8702 21.5157 24.3439 21.7047 24.6975 22.0462L30 27.3488L35.3025 22.0462C35.4755 21.8672 35.6824 21.7243 35.9111 21.6261C36.1399 21.5278 36.3859 21.4761 36.6349 21.4739C36.8838 21.4717 37.1307 21.5192 37.3612 21.6135C37.5916 21.7077 37.801 21.847 37.977 22.023C38.153 22.1991 38.2923 22.4084 38.3866 22.6388C38.4808 22.8693 38.5283 23.1162 38.5261 23.3651C38.5239 23.6141 38.4722 23.8601 38.3739 24.0889C38.2757 24.3176 38.1328 24.5245 37.9538 24.6975L32.6513 30L37.9538 35.3025C38.1328 35.4755 38.2757 35.6824 38.3739 35.9111C38.4722 36.1399 38.5239 36.3859 38.5261 36.6349C38.5283 36.8838 38.4808 37.1307 38.3866 37.3612C38.2923 37.5916 38.153 37.801 37.977 37.977C37.801 38.1531 37.5916 38.2923 37.3612 38.3866C37.1307 38.4808 36.8838 38.5283 36.6349 38.5261C36.3859 38.5239 36.1399 38.4722 35.9111 38.374C35.6824 38.2757 35.4755 38.1328 35.3025 37.9538L30 32.6513L24.6975 37.9538C24.3439 38.2953 23.8702 38.4843 23.3786 38.48C22.887 38.4758 22.4167 38.2786 22.0691 37.9309C21.7214 37.5833 21.5243 37.113 21.52 36.6214C21.5157 36.1298 21.7047 35.6561 22.0462 35.3025L27.3488 30Z" fill="white"/>
<path d="M30 52.5C32.9547 52.5 35.8806 51.918 38.6104 50.7873C41.3402 49.6566 43.8206 47.9992 45.9099 45.9099C47.9992 43.8206 49.6566 41.3402 50.7873 38.6104C51.918 35.8806 52.5 32.9547 52.5 30C52.5 27.0453 51.918 24.1194 50.7873 21.3896C49.6566 18.6598 47.9992 16.1794 45.9099 14.0901C43.8206 12.0008 41.3402 10.3434 38.6104 9.21271C35.8806 8.08198 32.9547 7.5 30 7.5C24.0326 7.5 18.3097 9.87053 14.0901 14.0901C9.87053 18.3097 7.5 24.0326 7.5 30C7.5 35.9674 9.87053 41.6903 14.0901 45.9099C18.3097 50.1295 24.0326 52.5 30 52.5ZM30 56.25C23.0381 56.25 16.3613 53.4844 11.4384 48.5616C6.51562 43.6387 3.75 36.9619 3.75 30C3.75 23.0381 6.51562 16.3613 11.4384 11.4384C16.3613 6.51562 23.0381 3.75 30 3.75C36.9619 3.75 43.6387 6.51562 48.5616 11.4384C53.4844 16.3613 56.25 23.0381 56.25 30C56.25 36.9619 53.4844 43.6387 48.5616 48.5616C43.6387 53.4844 36.9619 56.25 30 56.25Z" fill="white"/>
</svg>
